<svg width="50" height="50" viewBox="0 0 50 50" fill="none" xmlns="http://www.w3.org/2000/svg">
<circle cx="25" cy="25" r="25" fill="#D65555"/>
<path d="M25.226 14.8C20.333 14.7994 16.1618 18.348 15.3784 23.178C14.595 28.0079 17.4306 32.693 22.073 34.239C22.573 34.329 22.752 34.022 22.752 33.758C22.752 33.521 22.744 32.893 22.741 32.058C19.966 32.658 19.38 30.72 19.38 30.72C19.1973 30.117 18.8046 29.5994 18.273 29.2611C17.373 28.6421 18.342 28.656 18.342 28.656C18.9827 28.7439 19.5466 29.1235 19.869 29.684C20.142 30.1803 20.6018 30.547 21.1463 30.7027C21.6909 30.8583 22.275 30.7901 22.769 30.5131C22.8154 30.0071 23.0406 29.5341 23.404 29.179C21.19 28.928 18.862 28.0721 18.862 24.2491C18.8497 23.2602 19.2169 22.3043 19.888 21.578C19.5844 20.7174 19.6201 19.7733 19.988 18.938C19.988 18.938 20.825 18.669 22.73 19.959C24.3639 19.5111 26.0882 19.5111 27.722 19.959C29.628 18.668 30.464 18.938 30.464 18.938C30.8336 19.7729 30.8694 20.7176 30.564 21.578C31.2376 22.3043 31.6045 23.2627 31.588 24.253C31.588 28.086 29.258 28.928 27.036 29.175C27.5154 29.6651 27.7612 30.3374 27.711 31.021C27.711 32.355 27.699 33.431 27.699 33.758C27.699 34.025 27.877 34.335 28.386 34.237C33.0265 32.6884 35.8591 28.003 35.074 23.1744C34.289 18.3457 30.1181 14.7989 25.226 14.8Z" fill="#FBF8F8"/>
</svg>
