<svg width="50" height="50" viewBox="0 0 50 50" fill="none" xmlns="http://www.w3.org/2000/svg">
<circle cx="25" cy="25" r="25" fill="#D65555"/>
<path d="M26.2 33.8H22.2V21.8H26.2V23.8C27.0526 22.7153 28.3456 22.0686 29.725 22.037C32.2056 22.0508 34.2072 24.0694 34.2 26.55V33.8H30.2V27.05C30.04 25.9327 29.0818 25.1036 27.953 25.106C27.4593 25.1217 26.9933 25.3378 26.6625 25.7047C26.3316 26.0715 26.1647 26.5573 26.2 27.05V33.8ZM20.2 33.8H16.2V21.8H20.2V33.8ZM18.2 19.8C17.0954 19.8 16.2 18.9046 16.2 17.8C16.2 16.6955 17.0954 15.8 18.2 15.8C19.3046 15.8 20.2 16.6955 20.2 17.8C20.2 18.3305 19.9893 18.8392 19.6142 19.2143C19.2392 19.5893 18.7304 19.8 18.2 19.8Z" fill="#FBF8F8"/>
</svg>
